<svg width="19" height="17" viewBox="0 0 19 17" fill="none" xmlns="http://www.w3.org/2000/svg">
<g id="Icons">
<path id="Fill 1" fill-rule="evenodd" clip-rule="evenodd" d="M16.761 3.02998C17.5661 2.52976 18.1842 1.73853 18.4751 0.795328C17.7222 1.25801 16.8874 1.59394 15.9998 1.77545C15.2885 0.990367 14.2755 0.5 13.1545 0.5C11.0016 0.5 9.25656 2.30827 9.25656 4.53922C9.25656 4.85547 9.291 5.16372 9.3575 5.45966C6.11741 5.29108 3.24544 3.68277 1.32287 1.23894C0.987406 1.83574 0.795031 2.52976 0.795031 3.26993C0.795031 4.67089 1.48319 5.90758 2.52878 6.63174C1.88991 6.61083 1.28903 6.42932 0.763562 6.12661C0.762968 6.14384 0.762969 6.16045 0.762969 6.17768C0.762969 8.13484 2.10662 9.76714 3.89025 10.1381C3.56309 10.2304 3.21872 10.2797 2.86306 10.2797C2.61191 10.2797 2.36787 10.2544 2.12978 10.2077C2.62556 11.8123 4.06541 12.9801 5.77125 13.0127C4.43709 14.0962 2.75619 14.7416 0.929812 14.7416C0.615125 14.7416 0.305187 14.7225 0 14.6856C1.72484 15.8312 3.77387 16.5 5.9755 16.5C13.1456 16.5 17.0662 10.3449 17.0662 5.00744C17.0662 4.83209 17.0626 4.65797 17.0549 4.48446C17.8167 3.91534 18.4775 3.2041 19 2.39379C18.3012 2.71496 17.5495 2.93215 16.761 3.02998Z" fill="#ffffff"/>
</g>
</svg>
